<svg id="e962ae25-2ec5-4044-b3cc-95563889432b" data-name="Layer 1" xmlns="http://www.w3.org/2000/svg" viewBox="0 0 714.24 217.04">
  <title>logo</title>
  <text transform="translate(247.29 160.46)" style="font-size: 113.22865295410156px;fill: #30bdb5;font-family: Varela">la<tspan x="92.85" y="0" style="letter-spacing: -0.030979901363146385em">r</tspan><tspan x="133.16" y="0">abook</tspan></text>
  <circle cx="108.52" cy="108.52" r="108.52" style="fill: #30bdb5"/>
  <g>
    <path d="M54.81,131.3a32.49,32.49,0,0,1,14.68-11,32,32,0,0,1,42.67,25.45c.15,1.08.47,1.55,1.6,1.52,2.22-.06,4.45.07,6.67-.08a2.11,2.11,0,0,0,1.44-1.33c2.43-13.48,10.08-22.6,23.22-26.27s24.4.33,33.36,10.66l.77.94c.07-.84.15-1.37.15-1.91,0-20.76,0-41.87,0-62.63,0-8.41-6.4-15.25-14.42-15.5A15.21,15.21,0,0,0,149,65.77c-.1,1.67-.61,3.11-2.25,3.36a5,5,0,0,1-3.19-1.06c-.49-.34-.62-1.45-.63-2.21C142.83,54.53,152.64,45,164.28,45a21,21,0,0,1,21.11,20.41c.24,11.66.1,23.67.1,35.33,0,17.12.16,34.25-.13,51.36-.24,14.48-11.91,27.34-26.26,29.62a32,32,0,0,1-37-25.79c-.14-.72-.2-1.46-.34-2.54-2.91,0-5.84,0-8.77,0-.27,0-.67.73-.75,1.17-2.56,14.82-12.73,25.29-27.44,27.3a31.67,31.67,0,0,1-35.61-25.68,38,38,0,0,1-.53-6.83c0-27.23.12-54.81-.08-82A22,22,0,0,1,66.08,45.29c12.51-2.45,25.1,7.7,25.09,20.45,0,2.19-1.11,3.54-2.94,3.58s-3-1.21-3.12-3.42c-.53-8.07-6.58-14.37-14.19-14.77-8-.42-14.56,4.91-16,13a11.28,11.28,0,0,0-.16,2c0,21.1,0,42.55,0,63.64C54.74,130.08,54.77,130.41,54.81,131.3Zm72.94,18.94a25.81,25.81,0,1,0,25.84-25.77A25.82,25.82,0,0,0,127.75,150.24Zm-21.39.29a25.81,25.81,0,0,0-25.55-26.06C67,124.23,55,135.63,54.75,149.22c-.28,14.52,10.83,26.58,24.74,26.86C94.38,176.38,106.09,165.24,106.36,150.53Z" transform="translate(-3.09 -4.52)" style="fill: #fff"/>
    <path d="M154.53,133.6c8.39.21,15.69,7.66,15.81,16.14a3.3,3.3,0,0,1-2.81,3.61c-1.66.18-3-1.08-3.4-3a21.09,21.09,0,0,0-1.47-5.37c-1.75-3.35-4.81-5-8.54-5.29-2.43-.21-3.63-1.24-3.57-3.17S151.93,133.54,154.53,133.6Z" transform="translate(-3.09 -4.52)" style="fill: #fff"/>
    <path d="M81.53,133.6c8.39.2,15.69,7.66,15.81,16.14a3.3,3.3,0,0,1-2.81,3.61c-1.66.18-3-1.08-3.4-3a21.27,21.27,0,0,0-1.47-5.38c-1.75-3.34-4.81-4.95-8.54-5.28-2.44-.21-3.63-1.25-3.58-3.17S78.93,133.54,81.53,133.6Z" transform="translate(-3.09 -4.52)" style="fill: #fff"/>
  </g>
</svg>
